<svg width="78" height="72" viewBox="0 0 78 72" fill="none" xmlns="http://www.w3.org/2000/svg">
<path d="M39.39 61.0136L39 61.406L38.571 61.0136C20.046 44.1024 7.8 32.9199 7.8 21.5804C7.8 13.733 13.65 7.84741 21.45 7.84741C27.456 7.84741 33.306 11.7711 35.373 17.1074H42.627C44.694 11.7711 50.544 7.84741 56.55 7.84741C64.35 7.84741 70.2 13.733 70.2 21.5804C70.2 32.9199 57.954 44.1024 39.39 61.0136ZM56.55 0C49.764 0 43.251 3.1782 39 8.16131C34.749 3.1782 28.236 0 21.45 0C9.438 0 0 9.45613 0 21.5804C0 36.3728 13.26 48.497 33.345 66.8207L39 72L44.655 66.8207C64.74 48.497 78 36.3728 78 21.5804C78 9.45613 68.562 0 56.55 0Z" fill="white"/>
</svg>
