<svg width="46" height="50" viewBox="0 0 46 50" fill="none" xmlns="http://www.w3.org/2000/svg">
<path d="M5.75 44.2857H14.375V30C14.375 29.1905 14.651 28.5124 15.203 27.9657C15.755 27.419 16.4373 27.1448 17.25 27.1429H28.75C29.5646 27.1429 30.2479 27.4171 30.7999 27.9657C31.3519 28.5143 31.6269 29.1924 31.625 30V44.2857H40.25V18.5714L23 5.71428L5.75 18.5714V44.2857ZM0 44.2857V18.5714C0 17.6667 0.204124 16.8095 0.612374 16C1.02062 15.1905 1.58317 14.5238 2.3 14L19.55 1.14286C20.5562 0.380953 21.7062 0 23 0C24.2937 0 25.4437 0.380953 26.45 1.14286L43.7 14C44.4187 14.5238 44.9822 15.1905 45.3905 16C45.7987 16.8095 46.0019 17.6667 46 18.5714V44.2857C46 45.8571 45.4365 47.2028 44.3095 48.3228C43.1825 49.4428 41.8293 50.0019 40.25 50H28.75C27.9354 50 27.2531 49.7257 26.703 49.1771C26.1529 48.6286 25.8769 47.9505 25.875 47.1428V32.8571H20.125V47.1428C20.125 47.9524 19.849 48.6314 19.297 49.18C18.745 49.7286 18.0627 50.0019 17.25 50H5.75C4.16875 50 2.81558 49.4409 1.6905 48.3228C0.565416 47.2048 0.00191667 45.859 0 44.2857Z" fill="white"/>
</svg>
