<svg width="13" height="15" viewBox="0 0 13 15" fill="none" xmlns="http://www.w3.org/2000/svg">
<path d="M13 7.5C13.0005 7.69588 12.949 7.88854 12.8507 8.05926C12.7523 8.22998 12.6104 8.37293 12.4386 8.47423L1.79636 14.8302C1.61694 14.9374 1.41144 14.996 1.20108 14.9998C0.990724 15.0036 0.783142 14.9525 0.599773 14.8518C0.418149 14.7527 0.266852 14.6081 0.161439 14.4329C0.0560266 14.2578 0.000303474 14.0584 0 13.8552V1.14478C0.000303474 0.941626 0.0560266 0.742221 0.161439 0.567067C0.266852 0.391912 0.418149 0.247331 0.599773 0.148189C0.783142 0.047484 0.990724 -0.00360526 1.20108 0.000197836C1.41144 0.00400093 1.61694 0.0625586 1.79636 0.169823L12.4386 6.52577C12.6104 6.62707 12.7523 6.77002 12.8507 6.94074C12.949 7.11146 13.0005 7.30412 13 7.5Z" fill="#FFC700"/>
</svg>
